<svg id="Layer_1" data-name="Layer 1" xmlns="http://www.w3.org/2000/svg" viewBox="0 0 1080 1080"><defs><style>.cls-1{fill:#70bf44;}.cls-2{fill:#ec224b;}</style></defs><title>Artboard 1</title><path class="cls-1" d="M193,584.73A62,62,0,0,0,228,598.43c27.86,1.61,46-17.2,48.84-20.25,17-18.25,17.19-40.17,17.09-45.38a65.57,65.57,0,0,0-6.32-26.57q-2.88,19-5.75,37.91L267,532.8a90.19,90.19,0,0,1-74,51.93Z"/><path class="cls-2" d="M281,495.17c-1.8-2.43-19.78-25.75-50.91-25.42-29.48.31-46.54,21.57-48.69,24.34a62.05,62.05,0,0,0-12.8,37.78l3.91-3.23a.73.73,0,0,1,1,.1l5.67,6.85a.75.75,0,0,1-.1,1L172,542.57a.74.74,0,0,1-1-.1L169,540.13a65.54,65.54,0,0,0,2.68,13.49A77.15,77.15,0,0,0,205,555c5-.92,32.9-6.05,45-28.33a43.85,43.85,0,0,0,2.69-6l-12.86-13.14ZM187.4,531.55l5.47-4.08a.74.74,0,0,1,1,.15l4.37,5.86a.74.74,0,0,1-.15,1l-5.46,4.08a.76.76,0,0,1-1-.15l-4.37-5.86A.76.76,0,0,1,187.4,531.55Zm11.29,17.33-6.14,4.58a.73.73,0,0,1-1-.15l-4.66-6.24a.73.73,0,0,1,.15-1l6.14-4.58a.73.73,0,0,1,1,.15l4.66,6.24A.74.74,0,0,1,198.69,548.88Zm13.25-3-5.86,4.38a.74.74,0,0,1-1-.15l-4.7-6.3a.74.74,0,0,1,.15-1l5.86-4.37a.74.74,0,0,1,1,.15l4.69,6.29A.73.73,0,0,1,211.94,545.83Z"/><path class="cls-2" d="M416.65,490.46,463,574.33H422.8l-5.6-10.61H397.79l-17.09-.05-2.89-.06L374,570.69a27.18,27.18,0,0,1-2.34,4,2.15,2.15,0,0,1-1.67.77q-2,0-2-1.74a7.72,7.72,0,0,1,1.13-2.81q1.13-2.05,7.92-13.53l35.08-59.06Zm-18,38.08-10.12,17-8.1,14,17.28.23,17.35-.23Z"/><path class="cls-2" d="M468,495.22h29.67l-.23,21.91a32.62,32.62,0,0,1,9.13-5.74,25.83,25.83,0,0,1,9.82-1.92q11.37,0,20.46,8.29,10.26,9.33,10.26,24.29,0,15.42-10.55,25.44a27.79,27.79,0,0,1-19.64,8.12,24.33,24.33,0,0,1-10.15-2,31.55,31.55,0,0,1-9.15-6.78v7.53H468v-2.61l.17-28.11-.06-20.05Zm29.44,26.66v39.53a75.54,75.54,0,0,0,6.14,6q4.65,3.76,8.41,3.76a3.2,3.2,0,0,0,3.36-2.49,29.52,29.52,0,0,0,.41-5.85V523.85l0-2.55q0-4.41-.78-6a3,3,0,0,0-3-1.59,13.68,13.68,0,0,0-6.44,2A45.85,45.85,0,0,0,497.42,521.88Z"/><path class="cls-2" d="M585.52,509.47a33.1,33.1,0,0,1,17.68,5.16,31.1,31.1,0,0,1,11.76,13,34.05,34.05,0,0,1,3.6,15.35,31.62,31.62,0,0,1-2.12,11.19,33.82,33.82,0,0,1-5.77,10,32.06,32.06,0,0,1-12.46,9,32.64,32.64,0,0,1-12.58,2.5,32.23,32.23,0,0,1-19.7-6.5,31.77,31.77,0,0,1-10.38-12.8,33.84,33.84,0,0,1-2.95-14A31,31,0,0,1,563,518.46,33.42,33.42,0,0,1,585.52,509.47Zm-1.68,3.71-.18,58.48c1.2.08,2,.12,2.5.12a29,29,0,0,0,15.41-4.52,27.93,27.93,0,0,0,10.61-11.72A29.24,29.24,0,0,0,615,542.77q0-14-10.31-22.68-8.35-7-18.15-7C586,513.07,585.07,513.11,583.84,513.18Z"/><path class="cls-2" d="M670.16,545q13.7-24,16.53-31.12a23.83,23.83,0,0,1,2.16-4.3,2.22,2.22,0,0,1,1.82-.93,3.5,3.5,0,0,1,2.08.66,1.88,1.88,0,0,1,.92,1.48,7.38,7.38,0,0,1-1.27,3.07L658.63,574.5l-1.79,3.31-15.43-24.29-5.1-8L631,537.3l-4.58-7.25-13-19h36l14,23.25Z"/><path class="cls-2" d="M716.91,544.54v18c0,3.47.21,5.68.64,6.6q1.22,2.67,5.74,2.67a27,27,0,0,0,13.3-3.68A36,36,0,0,0,748,557.93a17.59,17.59,0,0,1,2.26-2.73,2.32,2.32,0,0,1,1.51-.58,2.09,2.09,0,0,1,1.62.73,2.68,2.68,0,0,1,.64,1.83q0,2.43-3.89,6.54a39.08,39.08,0,0,1-12.66,8.58,36.76,36.76,0,0,1-14.75,3.31,33.17,33.17,0,0,1-32.86-32.81,33.65,33.65,0,0,1,2.31-12.08,32.19,32.19,0,0,1,6.38-10.46,32.72,32.72,0,0,1,11.13-8,32.87,32.87,0,0,1,32.63,3.53q13.56,9.86,13.44,28.58h-13.5l-17.39,0Zm14.84-3.83V523.83q-.12-5.45-.23-6.51a4.09,4.09,0,0,0-.81-2q-1.63-2.25-6.61-2.25t-6.38,2.6q-.81,1.56-.81,8.16v16.88L724,541Z"/><path class="cls-2" d="M830,495.22v4L829.64,531l.35,43.29H794.52l.35-47.35-.41-28.92.06-2.84Z"/><path class="cls-2" d="M895.77,499.1l-.29,18.14-.17,17.21.17,39.88H860.13l.35-46.19-.18-15.71-.17-13.33-7.65.17-11,.24-1.62.05c-1.85,0-2.78-.69-2.78-2.08a1.82,1.82,0,0,1,1.62-2.09,20.73,20.73,0,0,1,2.84-.17H912.7a19,19,0,0,1,4.4.34,1.9,1.9,0,0,1,1.16,2c0,1.31-1,2-3,2l-5-.18-13.33-.23Z"/></svg>